<svg xmlns="http://www.w3.org/2000/svg" width="40" height="31" fill="none" viewBox="0 0 40 31">
    <mask id="ersovz5ema" width="40" height="31" x="0" y="0" maskUnits="userSpaceOnUse">
        <path fill="#fff" fill-rule="evenodd" d="M0 0h40v30.843H0V0z" clip-rule="evenodd"/>
    </mask>
    <g mask="url(#ersovz5ema)">
        <path fill="#010202" fill-rule="evenodd" d="M37.273 7.014c-.838-.624-3.101-1.545-8.237.335 1.93-1.904 2.222-4.638 2.266-5.385.473-.2.939-.364 1.4-.494 1.782-.503 4.061-.366 5.14 1.071.566.754.872 2.375-.57 4.473zm-2.075 2.263c-.346.303-.707.582-1.08.844-.062-.091-.128-.18-.2-.266-1.041-1.25-2.718-1.93-4.64-1.893 4.883-1.83 6.922-.923 7.59-.426-.432.554-.98 1.136-1.67 1.741zm-1.227 2.597c-.041.576-.383 1.18-.938 1.654-1.415 1.215-3.36 1.57-5.804 1.075.225-.052.443-.115.643-.201.716-.308 1.22-.816 1.454-1.472.03-.081.052-.164.073-.248 1.56-.298 3.057-.881 4.415-1.718.122.303.179.614.157.91zm-9.046 2.032c-.77-.287-1.577-.637-2.425-1.058-.788-.392-1.586-.84-2.38-1.335l.826-.429c1.416.825 3.612 1.798 6.092 1.798.102 0 .204-.001.306-.004.487-.011.971-.053 1.451-.12-.19.469-.556.825-1.095 1.06-.875.378-1.982.334-2.775.088zm-.364 1.988s-.166.009-.45.012l-1.167.006-1.571-.006c.605.073 1.165.184 1.639.305.475.122.863.253 1.132.356.268.102.417.175.417.175s-.166.008-.45.012l-1.167.005-1.534-.006c.616.074 1.186.185 1.668.305.485.123.881.253 1.155.357.274.101.427.174.427.174s-.17.009-.459.012l-1.19.006-1.587-.006c.62.073 1.195.184 1.681.305.488.122.887.253 1.164.356.276.102.43.175.43.175s-.17.008-.462.012l-1.198.005-1.75-.006c.585.073 1.128.185 1.586.306.458.122.832.252 1.091.356.213.084.346.147.387.167-1.476-.131-3.146-.206-4.92-.206-1.766 0-3.43.074-4.9.204.044-.021.176-.084.383-.166.258-.103.633-.234 1.091-.357.454-.12.991-.23 1.572-.304l-1.702.008-1.199-.006c-.292-.004-.461-.013-.461-.013s.153-.073.43-.175c.276-.104.675-.235 1.163-.358.483-.12 1.052-.229 1.666-.303l-1.572.007-1.19-.006c-.29-.004-.458-.013-.458-.013s.152-.073.426-.175c.274-.104.67-.235 1.155-.357.479-.12 1.043-.23 1.653-.303l-1.518.007-1.168-.006c-.284-.004-.45-.013-.45-.013s.15-.073.418-.175c.268-.104.657-.235 1.132-.358.47-.12 1.024-.229 1.624-.303l-1.556.007-1.168-.006c-.284-.004-.45-.013-.45-.013s.15-.073.418-.175c.268-.103.657-.234 1.132-.357.475-.121 1.037-.232 1.644-.306.303-.038.618-.068.938-.086.319-.022.652-.027.97-.03.33.004.652.01.974.03.32.02.635.049.938.087.607.074 1.169.185 1.644.306.475.123.863.253 1.132.357.268.101.417.174.417.174zm-2.19 7.341c.402 0 .741 0 .98.005.24.003.38.011.38.011s-.121.07-.342.166c-.222.098-.544.222-.94.338-.288.084-.616.162-.97.226.221 0 .43-.002.621-.003.366.001.675.001.894.005.218.004.348.011.348.011s-.109.069-.308.165c-.199.098-.489.222-.848.339-.303.096-.657.186-1.039.255l.59-.005c.318.001.587.001.778.005.192.003.305.01.305.01-3.83 2.023-6.717 0-6.717 0s.114-.007.305-.01c.192-.005.461-.005.778-.006l.57.003c-.374-.068-.72-.156-1.018-.251-.36-.117-.65-.241-.848-.34-.2-.096-.308-.165-.308-.165s.129-.008.348-.011c.219-.005.528-.005.893-.006l.609.003c-.349-.063-.672-.14-.957-.223-.397-.117-.719-.242-.94-.34-.221-.097-.343-.166-.343-.166s.14-.008.38-.012.579-.004.98-.005l1.026.005c-.47-.07-.906-.163-1.278-.265-.421-.116-.764-.24-1-.34-.102-.04-.18-.076-.24-.104 1.343.105 2.836.165 4.414.165 1.564 0 3.047-.058 4.381-.162-.06.028-.134.061-.231.101-.237.099-.58.223-1 .339-.377.103-.818.197-1.293.267l1.04-.005zm-8.381-9.329c-.793.246-1.9.29-2.774-.089-.54-.234-.906-.59-1.095-1.058.48.066.964.108 1.45.12.102.002.205.003.307.003 2.48 0 4.676-.973 6.092-1.798l.825.429c-.792.495-1.591.943-2.38 1.335-.847.421-1.655.772-2.425 1.058zm-8.108-.378c-.554-.475-.896-1.078-.938-1.654-.021-.296.036-.607.158-.91 1.358.837 2.856 1.42 4.415 1.718.022.084.044.167.073.248.235.656.738 1.165 1.455 1.472.199.086.417.15.642.201-2.445.496-4.389.14-5.805-1.075zm-2.16-4.367c-.693-.604-1.242-1.186-1.674-1.739.651-.503 2.66-1.417 7.59.43C7.716 7.816 6.04 8.493 5 9.737c-.071.085-.137.174-.2.264-.372-.26-.733-.538-1.078-.839zm-2.648-6.62c.717-.956 1.965-1.336 3.244-1.336.645 0 1.298.097 1.895.265.462.13.927.295 1.4.494.044.747.337 3.481 2.267 5.385-5.136-1.88-7.4-.959-8.237-.336C.202 4.916.508 3.294 1.073 2.541zm9.29 7.958c.371-.66.975-1.122 1.655-1.267.731-.156 1.471-.046 2.061.12.997.323 1.977.76 3.018 1.332l.251.127c-1.353.716-3.291 1.478-5.417 1.478-.097 0-.194 0-.292-.003-.546-.013-1.089-.06-1.626-.143-.057-.549.062-1.132.35-1.644zm-1.008 1.55c-1.43-.302-2.804-.854-4.055-1.63.049-.068.1-.135.156-.2.903-1.07 2.364-1.665 4.057-1.665.157 0 .316.005.476.015.505.033.988.081 1.456.147-.68.262-1.27.779-1.651 1.471-.324.587-.47 1.233-.439 1.861zm2.564-7.582c2.327 1.78 5.897 4.443 6.996 5.26-.219.16-.546.385-.956.634l-.596-.308c-.773-.435-1.514-.795-2.252-1.09-.212-.095-.492-.205-.818-.3-.54-.181-1.085-.328-1.647-.446-1.799-.58-3.08-1.848-3.805-3.767-.347-.915-.478-1.77-.529-2.281 1.125.548 2.306 1.303 3.607 2.298zm5.23 1.458c.027-.025.065-.064.122-.105.11-.086.277-.197.494-.295.216-.102.482-.188.772-.25.29-.06.605-.093.92-.094.154.003.314.006.47.024.154.013.305.043.45.07.29.06.555.147.771.25.218.097.385.209.495.294.056.042.095.08.122.106l.041.04s-.074-.027-.203-.063c-.129-.038-.312-.082-.531-.123-.22-.04-.477-.073-.752-.099-.159-.013-.321-.021-.487-.027l.067.005c.146.013.287.043.424.071.273.061.522.148.723.25.202.1.356.21.456.295.05.041.086.08.11.105l.038.038s-.07-.026-.19-.062c-.12-.037-.292-.08-.497-.122-.205-.04-.444-.074-.701-.1-.128-.013-.262-.018-.396-.025l-.07-.002.034.003c.124.014.244.045.36.074.229.062.435.153.597.256.164.1.283.209.358.291.039.04.064.077.082.1.017.025.027.037.027.037s-.058-.025-.158-.06c-.1-.036-.24-.08-.408-.122-.168-.04-.364-.075-.574-.1-.105-.015-.214-.019-.325-.027-.11-.007-.218-.01-.335-.01-.225.002-.45.011-.66.036-.21.025-.406.06-.574.1-.168.042-.31.087-.408.123-.099.035-.158.06-.158.06l.027-.036c.018-.024.042-.06.082-.1.075-.083.194-.192.358-.291.081-.051.173-.1.274-.143.1-.042.208-.086.324-.113.137-.04.284-.063.434-.08-.172.006-.341.014-.503.029-.257.025-.497.059-.702.1-.204.04-.376.085-.496.122-.12.035-.19.062-.19.062l.037-.038c.024-.025.059-.063.11-.105.101-.085.255-.195.457-.294.201-.102.45-.189.723-.25.177-.04.366-.064.557-.079-.189.005-.375.013-.554.029-.275.025-.531.058-.751.098-.22.042-.403.086-.53.123-.13.036-.205.063-.205.063l.042-.039zm3.211 4.87l-.843.41-.843-.41c.379-.23.666-.427.843-.554.177.127.465.324.843.554zm8.54 1.348c-.536.082-1.08.13-1.626.143l-.291.003c-2.126 0-4.064-.762-5.418-1.478l.241-.122.01-.005c1.041-.572 2.02-1.008 3.017-1.332.59-.166 1.331-.276 2.062-.12.68.145 1.284.607 1.655 1.266.288.512.408 1.096.35 1.645zm.22-1.956c-.382-.692-.97-1.208-1.651-1.47.468-.067.95-.115 1.456-.147 1.894-.122 3.545.48 4.533 1.648.055.066.107.133.155.202-1.25.775-2.623 1.327-4.054 1.628.03-.629-.115-1.274-.439-1.86zm-2.126-5.72c1.302-.995 2.483-1.75 3.607-2.298-.05.512-.182 1.366-.528 2.281-.726 1.92-2.007 3.186-3.806 3.767-.56.118-1.105.264-1.644.445-.327.096-.608.206-.821.3v.001c-.738.295-1.478.655-2.252 1.09l-.595.308c-.41-.249-.738-.474-.956-.633 1.098-.818 4.668-3.481 6.995-5.26zm11.29-2.313C37.035.483 34.479.299 32.503.859c-1.828.517-3.694 1.527-5.872 3.179-.98.744-2.182 1.642-3.327 2.495l-.057-.043c-.117-.14-.246-.278-.385-.411-.11-.104-.131-.266-.066-.401.111-.232.172-.479.172-.736 0-.688-.432-1.182-1.119-1.497l-.02-.011c-.483-.219-.365-.523-.288-.65.03-.039.057-.08.09-.118.11-.123.206-.258.324-.375.115-.12.227-.24.352-.346.116-.113.24-.213.36-.309.117-.099.241-.181.353-.265.117-.077.224-.155.33-.215.102-.067.2-.12.285-.17.084-.048.16-.087.222-.118l.138-.067.051-.023.016-.007c.16-.073.24-.26.178-.427-.065-.177-.26-.267-.437-.203l-.064.024c-.048.017-.108.043-.182.078-.148.07-.356.173-.583.328-.117.073-.233.167-.36.26-.117.103-.248.205-.368.327-.122.12-.246.245-.36.383-.12.133-.224.281-.33.427-.112.142-.196.304-.29.452-.047.08-.09.162-.13.243l-.045.093c-.076.132-.257.357-.61.323l-.024-.001c-.313-.04-.643-.062-.986-.062-.346 0-.678.023-.994.063h-.012c-.36.033-.542-.197-.617-.329l-.043-.087c-.04-.081-.083-.163-.13-.243-.094-.148-.178-.31-.289-.452-.106-.146-.211-.294-.33-.427-.115-.138-.239-.263-.36-.383-.12-.122-.251-.224-.37-.327-.126-.093-.242-.187-.359-.26-.227-.155-.435-.258-.582-.328-.074-.035-.135-.06-.182-.078l-.064-.024c-.166-.06-.354.016-.428.18-.078.171-.002.373.17.45l.014.007.051.023.139.067c.061.031.137.07.222.119.085.05.182.102.284.169.106.06.213.138.33.215.112.084.236.166.353.265.12.096.244.196.36.309.125.105.237.226.352.346.119.117.215.252.325.375l.023.03c.08.112.323.51-.133.7l-.008.004c-.746.313-1.22.82-1.22 1.542 0 .254.06.499.168.728.064.133.038.293-.07.394-.162.154-.311.314-.444.479l.031.023h-.001c-1.159-.862-2.379-1.775-3.373-2.528C10.106 2.386 8.241 1.376 6.413.859 4.436.3 1.881.483.631 2.154c-1.867 2.495.824 5.907 2.71 7.53.377.326.774.626 1.183.905-.191.426-.281.874-.25 1.3.056.754.467 1.495 1.16 2.088 1.127.964 2.537 1.445 4.22 1.445 1.401 0 2.991-.335 4.764-1.001.074-.028.152-.051.223-.083l-.002-.002.006-.002c-.79 1.072-1.356 2.59-1.356 4.746 0 5.588 3.79 9.13 5.453 10.417.452.35 1.082.35 1.534 0 1.663-1.286 5.453-4.83 5.453-10.417 0-2.119-.547-3.62-1.314-4.689l.079.028c1.774.668 3.365 1.003 4.767 1.003 1.683 0 3.094-.481 4.22-1.445.694-.593 1.105-1.334 1.16-2.087.032-.427-.058-.875-.249-1.301.41-.279.805-.58 1.183-.905 1.885-1.623 4.577-5.035 2.71-7.53z" clip-rule="evenodd"/>
    </g>
</svg>
