<?xml version="1.0" encoding="utf-8"?>
<!-- Svg Vector Icons : http://www.onlinewebfonts.com/icon -->
<!DOCTYPE svg PUBLIC "-//W3C//DTD SVG 1.1//EN" "http://www.w3.org/Graphics/SVG/1.1/DTD/svg11.dtd">
<svg version="1.1" xmlns="http://www.w3.org/2000/svg" xmlns:xlink="http://www.w3.org/1999/xlink" x="0px" y="0px" viewBox="0 0 1000 1000" enable-background="new 0 0 1000 1000" xml:space="preserve">
<metadata> Svg Vector Icons : http://www.onlinewebfonts.com/icon </metadata>
<g><path d="M33.2,53.3l15.5-15.5H33.2l7.7,7.7l908.9,908.9l7.7,7.7v-15.5l-15.5,15.5h15.5l-7.7-7.7L40.9,45.6l-7.7-7.7V53.3L33.2,53.3z M17.7,37.8L10,45.6l7.7,7.7l7.7,7.7l908.9,908.9l7.7,7.7l7.7,7.7l7.7-7.7l15.5-15.5l7.7-7.7l-7.7-7.7l-7.7-7.7L56.4,30.1l-7.7-7.7l-7.7-7.7l-7.7,7.7L17.7,37.8L17.7,37.8z M951.4,37.8l15.5,15.5V37.8l-7.7,7.7L50.2,954.4l-7.7,7.7h15.5l-15.5-15.5v15.5l7.7-7.7L959.1,45.6l7.7-7.7H951.4L951.4,37.8z M966.8,22.4l-7.7-7.7l-7.7,7.7l-7.7,7.7L34.7,939l-7.7,7.7l-7.7,7.7l7.7,7.7l15.5,15.5l7.7,7.7l7.7-7.7l7.7-7.7L974.5,61l7.7-7.7l7.7-7.7l-7.7-7.7L966.8,22.4L966.8,22.4z"/></g>
</svg>