<svg xmlns="http://www.w3.org/2000/svg" width="23" height="23" fill="none" viewBox="0 0 23 23">
    <mask id="cy0tshf43a" width="23" height="23" x="0" y="0" maskUnits="userSpaceOnUse">
        <path fill="#fff" fill-rule="evenodd" d="M0 .007h22.73v22.727H0V.007z" clip-rule="evenodd"/>
    </mask>
    <g mask="url(#cy0tshf43a)">
        <path fill="#938985" fill-rule="evenodd" d="M11.365.007C8.278.007 7.89.02 6.679.075 5.47.13 4.643.323 3.92.603c-.747.29-1.38.68-2.013 1.311-.631.632-1.02 1.266-1.31 2.013-.281.723-.473 1.55-.529 2.759C.013 7.898 0 8.286 0 11.372s.013 3.473.068 4.685c.056 1.21.248 2.036.529 2.76.29.746.679 1.38 1.31 2.012.632.632 1.266 1.02 2.013 1.31.723.282 1.55.474 2.76.53 1.211.054 1.598.067 4.685.067 3.086 0 3.473-.013 4.685-.068 1.21-.055 2.036-.247 2.76-.528.747-.29 1.38-.68 2.012-1.311.632-.632 1.02-1.266 1.311-2.013.281-.723.473-1.549.528-2.759.056-1.212.069-1.599.069-4.685 0-3.087-.013-3.474-.069-4.686-.055-1.21-.247-2.036-.528-2.759-.29-.747-.679-1.38-1.31-2.013-.633-.632-1.266-1.02-2.014-1.31C18.086.322 17.26.13 16.05.074 14.838.02 14.451.007 11.366.007zm0 2.048c3.034 0 3.394.011 4.592.066 1.108.05 1.71.235 2.11.391.531.206.91.453 1.307.85.398.398.644.777.85 1.307.156.4.341 1.002.392 2.11.054 1.199.066 1.558.066 4.593 0 3.034-.012 3.394-.066 4.592-.05 1.108-.236 1.71-.392 2.11-.206.53-.452.91-.85 1.307-.397.398-.776.644-1.306.85-.401.156-1.003.341-2.11.391-1.199.055-1.558.067-4.593.067s-3.394-.012-4.593-.067c-1.108-.05-1.71-.235-2.11-.39-.53-.207-.909-.453-1.307-.85-.397-.399-.644-.777-.85-1.308-.155-.4-.34-1.002-.391-2.11-.055-1.198-.066-1.558-.066-4.592 0-3.035.011-3.394.066-4.593.05-1.108.236-1.71.391-2.11.206-.53.453-.909.85-1.307.398-.397.777-.644 1.307-.85.4-.156 1.002-.34 2.11-.391 1.199-.055 1.558-.066 4.593-.066z" clip-rule="evenodd"/>
    </g>
    <path fill="#938985" fill-rule="evenodd" d="M11.132 15.448c-2.123 0-3.843-1.72-3.843-3.843s1.72-3.844 3.843-3.844 3.844 1.721 3.844 3.844c0 2.123-1.721 3.843-3.844 3.843zm0-9.764c-3.27 0-5.921 2.65-5.921 5.92 0 3.271 2.65 5.922 5.921 5.922 3.27 0 5.921-2.651 5.921-5.921 0-3.27-2.65-5.921-5.921-5.921zM18.948 5.21c0 .785-.637 1.421-1.422 1.421-.784 0-1.42-.636-1.42-1.42 0-.786.636-1.422 1.42-1.422.785 0 1.422.636 1.422 1.421z" clip-rule="evenodd"/>
</svg>
