<svg xmlns="http://www.w3.org/2000/svg" width="18" height="22" fill="none" viewBox="0 0 18 22">
    <mask id="rkchcp1kca" width="18" height="22" x="0" y="0" maskUnits="userSpaceOnUse">
        <path fill="#fff" fill-rule="evenodd" d="M0 0h17.03v22H0V0z" clip-rule="evenodd"/>
    </mask>
    <g mask="url(#rkchcp1kca)">
        <path fill="#938985" fill-rule="evenodd" d="M10.213 15.9c-1.364 0-2.649-.737-3.087-1.576 0 0-.735 2.912-.89 3.475-.546 1.984-2.156 3.972-2.281 4.134-.087.114-.28.077-.3-.073-.034-.253-.445-2.758.039-4.801l1.624-6.886s-.403-.807-.403-2c0-1.872 1.086-3.27 2.438-3.27 1.15 0 1.703.863 1.703 1.897 0 1.155-.734 2.883-1.115 4.484-.318 1.34.672 2.433 1.995 2.433 2.394 0 4.006-3.074 4.006-6.72 0-2.767-1.865-4.84-5.258-4.84-3.833 0-6.222 2.858-6.222 6.05 0 1.102.326 1.88.834 2.48.234.276.267.386.183.704-.062.234-.2.792-.258 1.015-.084.319-.344.433-.633.315C.823 12 0 10.068 0 7.894-.001 4.304 3.027 0 9.031 0c4.825 0 8 3.492 8 7.238 0 4.959-2.755 8.662-6.818 8.662z" clip-rule="evenodd"/>
    </g>
</svg>
