<svg xmlns="http://www.w3.org/2000/svg" width="30" height="22" fill="none" viewBox="0 0 30 22">
    <path fill="#938985" fill-rule="evenodd" d="M29.333 2.604c-1.079.442-2.24.74-3.456.875 1.243-.688 2.197-1.776 2.646-3.073-1.162.636-2.451 1.098-3.822 1.348C23.603.674 22.04 0 20.31 0c-3.324 0-6.018 2.486-6.018 5.554 0 .435.053.859.156 1.266C9.444 6.588 5.01 4.376 2.042 1.016c-.518.82-.815 1.775-.815 2.793 0 1.926 1.063 3.626 2.677 4.622-.986-.029-1.914-.278-2.725-.694l-.001.07c0 2.69 2.074 4.935 4.828 5.445-.505.127-1.037.195-1.586.195-.388 0-.764-.035-1.132-.099.765 2.206 2.988 3.812 5.622 3.857-2.06 1.49-4.655 2.377-7.474 2.377-.486 0-.965-.026-1.436-.077C2.663 21.08 5.826 22 9.225 22c11.07 0 17.123-8.463 17.123-15.802 0-.241-.006-.48-.018-.72 1.176-.782 2.197-1.76 3.003-2.874z" clip-rule="evenodd"/>
</svg>
