<svg xmlns="http://www.w3.org/2000/svg" width="24" height="18" fill="none" viewBox="0 0 24 18">
    <path fill="#938985" fill-rule="evenodd" d="M9 13V6l7 3.512L9 13zm14.76-9.117s-.235-1.764-.954-2.54C21.893.323 20.87.318 20.401.259 17.043 0 12.005 0 12.005 0h-.01S6.957 0 3.599.26c-.47.058-1.492.063-2.406 1.083-.719.776-.953 2.54-.953 2.54S0 5.954 0 8.025v1.941c0 2.072.24 4.142.24 4.142s.234 1.764.953 2.54c.914 1.02 2.113.988 2.647 1.095C5.76 17.939 12 18 12 18s5.043-.008 8.401-.267c.47-.06 1.492-.065 2.405-1.085.72-.776.954-2.54.954-2.54s.24-2.07.24-4.142V8.025c0-2.07-.24-4.142-.24-4.142z" clip-rule="evenodd"/>
</svg>
