<svg xmlns="http://www.w3.org/2000/svg" viewBox="0 0 179.82 44.32"><title>Asset 29</title><g id="Layer_2" data-name="Layer 2"><g id="Layer_1-2" data-name="Layer 1"><path d="M65.5,19.45c-.29-1.21-1.16-3.61-3.7-4.2H60.56V44.32h5.06V21s0,0,0-.05A8,8,0,0,0,65.5,19.45ZM63.65,4H62.53a2.28,2.28,0,0,0-2.27,2.28V7.65a2.29,2.29,0,0,0,2.27,2.29h1.12a2.29,2.29,0,0,0,2.28-2.29V6.28A2.28,2.28,0,0,0,63.65,4Zm-47.87-1A15.69,15.69,0,1,0,31.55,18.73,15.74,15.74,0,0,0,15.78,3.05Zm0,26.47A10.63,10.63,0,0,1,5.3,18.73,10.63,10.63,0,0,1,15.78,8,10.64,10.64,0,0,1,26.26,18.73,10.64,10.64,0,0,1,15.78,29.52Zm31-14.71a8.32,8.32,0,0,0-5,1.62V0H40.42C37.9.6,37,3,36.75,4.19c0,0,0,.1,0,.2V31.63a14.79,14.79,0,0,0,8.68,2.79c6.9,0,10.56-4.14,10.56-10.09C56,18.6,52,14.81,46.74,14.81ZM45.41,30.13a7.62,7.62,0,0,1-3.64-.94V21.27a4.84,4.84,0,0,1,4-2.19,4.91,4.91,0,0,1,5.1,5.31C50.89,28,48.67,30.13,45.41,30.13ZM171,30.65c-3,0-4.85-2.18-4.89-5.15h13.71c0-6.66-3.92-10.69-9.37-10.69-5.21,0-9.38,4-9.38,9.81a9.43,9.43,0,0,0,9.81,9.8,10.73,10.73,0,0,0,8.22-3.73l-2.87-2.41C174.5,29.89,173.14,30.65,171,30.65Zm-.55-12.08c2.14,0,3.74,1.4,4.32,3.77H166.3C166.87,20,168.41,18.57,170.45,18.57Zm-37.69-3.32h-1.28V34h5.07V20.15a6.63,6.63,0,0,0-.15-1A5.15,5.15,0,0,0,132.76,15.25Zm-53.31-.44c-5.21,0-9.38,4-9.38,9.81a9.43,9.43,0,0,0,9.8,9.8,10.73,10.73,0,0,0,8.23-3.73l-2.88-2.41c-1.72,1.61-3.09,2.37-5.22,2.37-3,0-4.85-2.18-4.89-5.15H88.82C88.81,18.84,84.9,14.81,79.45,14.81ZM75.3,22.34c.57-2.37,2.11-3.77,4.15-3.77s3.73,1.4,4.32,3.77Zm74.25,3.23-5.28-10.32h-5.15l10.43,19.61L160,15.25h-5.15ZM134.57,4h-1.11a2.31,2.31,0,0,0-2.28,2.28V7.67a2.29,2.29,0,0,0,2.28,2.27h1.11a2.29,2.29,0,0,0,2.29-2.27V6.28A2.29,2.29,0,0,0,134.57,4ZM102.76,30.2a5.4,5.4,0,0,1-5.2-5.58,5.4,5.4,0,0,1,5.2-5.59,5.5,5.5,0,0,1,4.14,1.76l3.24-2.72a10.29,10.29,0,0,0-7.47-3.26,9.94,9.94,0,0,0-10.08,9.81,9.94,9.94,0,0,0,10.08,9.8,10.29,10.29,0,0,0,8.09-4l-3.42-2.62A5.58,5.58,0,0,1,102.76,30.2ZM119.9,8.37H119c-2.78.46-3.74,3-4,4.25a6.18,6.18,0,0,0-.1.9V34h5.05V19.69h7.25V15.25H119.9Z"/></g></g></svg>