<svg xmlns="http://www.w3.org/2000/svg" viewBox="0 0 63.75 63.39"><defs><style>.cls-1{fill:#282828;}</style></defs><title>Asset 30</title><g id="Layer_2" data-name="Layer 2"><g id="Layer_1-2" data-name="Layer 1"><path class="cls-1" d="M51.74,44.31H49.48a4.59,4.59,0,0,0-3.34,1.49l0,0a4,4,0,0,0-.48.61l-.06.11a4.71,4.71,0,0,0-.33.63.32.32,0,0,0,0,.09,4.42,4.42,0,0,0-.32,1.63v2.8a4.62,4.62,0,0,0,4.59,4.6h2.26a4.62,4.62,0,0,0,4.62-4.6v-2.8A4.62,4.62,0,0,0,51.74,44.31ZM31.89,0a31.7,31.7,0,1,0,8.73,62.15,13.64,13.64,0,0,1-4.76-9.06,20.8,20.8,0,0,1-4,.4c-11.72,0-21.19-9.77-21.19-21.79S20.17,9.91,31.89,9.91,53.07,19.67,53.07,31.7a23.08,23.08,0,0,1-.3,3.55,13.71,13.71,0,0,1,9.73,5.16,31.4,31.4,0,0,0,1.25-8.71A31.8,31.8,0,0,0,31.89,0Z"/></g></g></svg>